<svg viewBox="0 0 960 520" xmlns="http://www.w3.org/2000/svg" style="font-family:-apple-system,BlinkMacSystemFont,'Segoe UI',system-ui,sans-serif;">
  <defs>
    <filter id="sh"><feDropShadow dx="0" dy="1" stdDeviation="2.5" flood-color="#94a3b8" flood-opacity="0.12"/></filter>
  </defs>

  <rect width="960" height="520" fill="#f8f9fb"/>
  <pattern id="gg" width="40" height="40" patternUnits="userSpaceOnUse"><path d="M 40 0 L 0 0 0 40" fill="none" stroke="#eef1f5" stroke-width="0.5"/></pattern>
  <rect width="960" height="520" fill="url(#gg)"/>

  <!-- pokernow-bot (left, red) -->
  <rect x="30" y="50" width="300" height="320" rx="16" fill="#fff" stroke="#dc2626" stroke-width="1.5" filter="url(#sh)"/>
  <rect x="30" y="50" width="300" height="38" rx="16" fill="#fef2f2"/>
  <rect x="30" y="72" width="300" height="16" fill="#fef2f2"/>
  <text x="180" y="75" text-anchor="middle" fill="#dc2626" font-size="14" font-weight="700">pokernow-bot</text>
  <text x="180" y="90" text-anchor="middle" fill="#94a3b8" font-size="9">Runtime Engine</text>

  <rect x="50" y="105" width="120" height="38" rx="6" fill="#fef2f2" stroke="#fecaca"/>
  <text x="110" y="128" text-anchor="middle" fill="#dc2626" font-size="10" font-weight="600">orchestrator.js</text>
  <rect x="190" y="105" width="120" height="38" rx="6" fill="#fef2f2" stroke="#fecaca"/>
  <text x="250" y="128" text-anchor="middle" fill="#dc2626" font-size="10" font-weight="600">coach-bridge.js</text>

  <rect x="50" y="155" width="120" height="38" rx="6" fill="#fef2f2" stroke="#fecaca"/>
  <text x="110" y="178" text-anchor="middle" fill="#dc2626" font-size="10" font-weight="600">coach-server.js</text>
  <rect x="190" y="155" width="120" height="38" rx="6" fill="#fef2f2" stroke="#fecaca"/>
  <text x="250" y="178" text-anchor="middle" fill="#dc2626" font-size="10" font-weight="600">botmanager.sh</text>

  <rect x="50" y="208" width="260" height="30" rx="5" fill="#fff" stroke="#e2e8f0"/>
  <text x="180" y="228" text-anchor="middle" fill="#64748b" font-size="9.5">lib/poker-now.js · lib/game-state.js</text>

  <rect x="50" y="250" width="260" height="30" rx="5" fill="#fff" stroke="#e2e8f0"/>
  <text x="180" y="270" text-anchor="middle" fill="#64748b" font-size="9.5">decide.py · bridge-live.js (legacy)</text>

  <rect x="50" y="295" width="260" height="55" rx="6" fill="#f8fafc" stroke="#e2e8f0"/>
  <text x="180" y="315" text-anchor="middle" fill="#475569" font-size="10" font-weight="600">Documentation</text>
  <text x="180" y="332" text-anchor="middle" fill="#94a3b8" font-size="9">SKILL.md · COACH-BRIDGE.md · BOTMANAGER.md</text>

  <!-- poker-agent (center, teal) -->
  <rect x="350" y="50" width="260" height="320" rx="16" fill="#fff" stroke="#0d9488" stroke-width="1.5" filter="url(#sh)"/>
  <rect x="350" y="50" width="260" height="38" rx="16" fill="#e6fffa"/>
  <rect x="350" y="72" width="260" height="16" fill="#e6fffa"/>
  <text x="480" y="75" text-anchor="middle" fill="#0d9488" font-size="14" font-weight="700">poker-agent</text>
  <text x="480" y="90" text-anchor="middle" fill="#94a3b8" font-size="9">GTO Brain</text>

  <rect x="370" y="105" width="220" height="55" rx="6" fill="#e6fffa" stroke="#99f6e4"/>
  <text x="480" y="125" text-anchor="middle" fill="#0d9488" font-size="10" font-weight="600">Strategy Knowledge Base</text>
  <text x="480" y="140" text-anchor="middle" fill="#64748b" font-size="8.5">gto-fundamentals · range · preflop</text>
  <text x="480" y="152" text-anchor="middle" fill="#64748b" font-size="8.5">postflop · sizing</text>

  <rect x="370" y="175" width="100" height="38" rx="6" fill="#e6fffa" stroke="#99f6e4"/>
  <text x="420" y="198" text-anchor="middle" fill="#0d9488" font-size="10" font-weight="600">equity.py</text>
  <rect x="490" y="175" width="100" height="38" rx="6" fill="#e6fffa" stroke="#99f6e4"/>
  <text x="540" y="198" text-anchor="middle" fill="#0d9488" font-size="10" font-weight="600">odds.py</text>

  <rect x="370" y="225" width="100" height="38" rx="6" fill="#e6fffa" stroke="#99f6e4"/>
  <text x="420" y="248" text-anchor="middle" fill="#0d9488" font-size="10" font-weight="600">preflop.py</text>
  <rect x="490" y="225" width="100" height="38" rx="6" fill="#e6fffa" stroke="#99f6e4"/>
  <text x="540" y="248" text-anchor="middle" fill="#0d9488" font-size="10" font-weight="600">evaluator.py</text>

  <rect x="370" y="280" width="220" height="70" rx="6" fill="#f8fafc" stroke="#e2e8f0"/>
  <text x="480" y="300" text-anchor="middle" fill="#475569" font-size="10" font-weight="600">Three-Layer Architecture</text>
  <text x="480" y="316" text-anchor="middle" fill="#94a3b8" font-size="9">Thinking → Application → Tools</text>
  <text x="480" y="330" text-anchor="middle" fill="#94a3b8" font-size="9">5 strategy docs · 5 tools</text>

  <!-- bot_profiles (right, purple) -->
  <rect x="630" y="50" width="300" height="320" rx="16" fill="#fff" stroke="#7c3aed" stroke-width="1.5" filter="url(#sh)"/>
  <rect x="630" y="50" width="300" height="38" rx="16" fill="#faf5ff"/>
  <rect x="630" y="72" width="300" height="16" fill="#faf5ff"/>
  <text x="780" y="75" text-anchor="middle" fill="#7c3aed" font-size="14" font-weight="700">bot_profiles</text>
  <text x="780" y="90" text-anchor="middle" fill="#94a3b8" font-size="9">AI Personalities</text>

  <rect x="650" y="105" width="125" height="42" rx="6" fill="#faf5ff" stroke="#ddd6fe"/>
  <text x="712" y="123" text-anchor="middle" fill="#7c3aed" font-size="10" font-weight="600">CoachBot</text>
  <text x="712" y="140" text-anchor="middle" fill="#94a3b8" font-size="8">opus · GTO coach</text>

  <rect x="785" y="105" width="125" height="42" rx="6" fill="#faf5ff" stroke="#ddd6fe"/>
  <text x="847" y="123" text-anchor="middle" fill="#7c3aed" font-size="10" font-weight="600">GTO_Grace</text>
  <text x="847" y="140" text-anchor="middle" fill="#94a3b8" font-size="8">opus · pro TAG</text>

  <rect x="650" y="158" width="125" height="42" rx="6" fill="#faf5ff" stroke="#ddd6fe"/>
  <text x="712" y="176" text-anchor="middle" fill="#7c3aed" font-size="10" font-weight="600">Shark_Alice</text>
  <text x="712" y="193" text-anchor="middle" fill="#94a3b8" font-size="8">sonnet · shark TAG</text>

  <rect x="785" y="158" width="125" height="42" rx="6" fill="#faf5ff" stroke="#ddd6fe"/>
  <text x="847" y="176" text-anchor="middle" fill="#7c3aed" font-size="10" font-weight="600">ARIA_Bot</text>
  <text x="847" y="193" text-anchor="middle" fill="#94a3b8" font-size="8">sonnet · regular TAG</text>

  <rect x="650" y="212" width="125" height="42" rx="6" fill="#faf5ff" stroke="#ddd6fe"/>
  <text x="712" y="230" text-anchor="middle" fill="#7c3aed" font-size="10" font-weight="600">Maniac_Charlie</text>
  <text x="712" y="247" text-anchor="middle" fill="#94a3b8" font-size="8">sonnet · regular LAG</text>

  <rect x="785" y="212" width="125" height="42" rx="6" fill="#faf5ff" stroke="#ddd6fe"/>
  <text x="847" y="230" text-anchor="middle" fill="#7c3aed" font-size="10" font-weight="600">Fish_Bob</text>
  <text x="847" y="247" text-anchor="middle" fill="#94a3b8" font-size="8">haiku · fish LP</text>

  <rect x="650" y="268" width="260" height="30" rx="5" fill="#fff" stroke="#e2e8f0"/>
  <text x="780" y="287" text-anchor="middle" fill="#64748b" font-size="9.5">.template/ — create new bots from here</text>

  <rect x="650" y="310" width="260" height="42" rx="6" fill="#f8fafc" stroke="#e2e8f0"/>
  <text x="780" y="328" text-anchor="middle" fill="#475569" font-size="10" font-weight="600">Per-Bot Runtime Files</text>
  <text x="780" y="344" text-anchor="middle" fill="#94a3b8" font-size="9">personality.md · turn.json · action.json</text>

  <!-- POKERNOW (bottom) -->
  <rect x="300" y="430" width="360" height="55" rx="10" fill="#1e293b" stroke="#334155" stroke-width="1" filter="url(#sh)"/>
  <text x="480" y="455" text-anchor="middle" fill="#fff" font-size="14" font-weight="700">pokernow.com</text>
  <text x="480" y="472" text-anchor="middle" fill="#94a3b8" font-size="10">Live Texas Hold'em · WebSocket</text>

  <!-- CONNECTIONS -->
  <path d="M180,370 L180,450 L300,450" stroke="#dc2626" stroke-width="2" fill="none"/>
  <circle cx="300" cy="450" r="4" fill="#dc2626"/>
  <text x="155" y="415" fill="#dc2626" font-size="9" font-weight="600">WebSocket</text>

  <path d="M370,200 L330,200" stroke="#0d9488" stroke-width="1.5" fill="none" stroke-dasharray="5,3"/>
  <circle cx="330" cy="200" r="3" fill="#0d9488"/>
  <text x="348" y="193" text-anchor="middle" fill="#94a3b8" font-size="8">strategy</text>

  <path d="M590,200 L630,200" stroke="#0d9488" stroke-width="1.5" fill="none" stroke-dasharray="5,3"/>
  <circle cx="630" cy="200" r="3" fill="#0d9488"/>
  <text x="610" y="193" text-anchor="middle" fill="#94a3b8" font-size="8">tools</text>

  <path d="M650,340 L560,380 L330,380 L330,370" stroke="#7c3aed" stroke-width="1.5" fill="none" stroke-dasharray="5,3"/>
  <circle cx="330" cy="370" r="3" fill="#7c3aed"/>
  <text x="490" y="393" text-anchor="middle" fill="#94a3b8" font-size="8">action.json / turn.json</text>

  <!-- CLAUDE.md (top center) -->
  <rect x="400" y="5" width="160" height="30" rx="6" fill="#fff" stroke="#94a3b8" stroke-width="1"/>
  <text x="480" y="24" text-anchor="middle" fill="#64748b" font-size="10" font-weight="600">CLAUDE.md — Project Brain</text>

  <!-- Legend -->
  <g transform="translate(30, 495)">
    <rect x="0" y="-4" width="12" height="12" rx="3" fill="#fef2f2" stroke="#dc2626" stroke-width="1"/>
    <text x="18" y="6" fill="#94a3b8" font-size="9">Engine</text>
    <rect x="70" y="-4" width="12" height="12" rx="3" fill="#e6fffa" stroke="#0d9488" stroke-width="1"/>
    <text x="88" y="6" fill="#94a3b8" font-size="9">Brain</text>
    <rect x="130" y="-4" width="12" height="12" rx="3" fill="#faf5ff" stroke="#7c3aed" stroke-width="1"/>
    <text x="148" y="6" fill="#94a3b8" font-size="9">Personalities</text>
    <rect x="230" y="-4" width="12" height="12" rx="3" fill="#1e293b" stroke="#334155" stroke-width="1"/>
    <text x="248" y="6" fill="#94a3b8" font-size="9">Game Server</text>
  </g>
</svg>
