<svg viewBox="0 0 780 140" xmlns="http://www.w3.org/2000/svg" style="font-family:-apple-system,BlinkMacSystemFont,'Segoe UI',system-ui,sans-serif;">
  <rect width="780" height="140" fill="#f8f9fb" rx="10"/>

  <!-- CoachBot -->
  <rect x="10" y="10" width="120" height="120" rx="10" fill="#fff" stroke="#e2e8f0" stroke-width="1"/>
  <text x="70" y="42" text-anchor="middle" fill="#1e293b" font-size="12" font-weight="700">CoachBot</text>
  <text x="70" y="60" text-anchor="middle" fill="#64748b" font-size="8.5">Observer-only</text>
  <text x="70" y="73" text-anchor="middle" fill="#64748b" font-size="8.5">GTO coach</text>
  <rect x="35" y="88" width="70" height="20" rx="10" fill="#faf5ff" stroke="#ddd6fe" stroke-width="1"/>
  <text x="70" y="102" text-anchor="middle" fill="#7c3aed" font-size="9" font-weight="600">opus</text>

  <!-- GTO_Grace -->
  <rect x="140" y="10" width="120" height="120" rx="10" fill="#fff" stroke="#e2e8f0" stroke-width="1"/>
  <text x="200" y="42" text-anchor="middle" fill="#1e293b" font-size="12" font-weight="700">GTO_Grace</text>
  <text x="200" y="60" text-anchor="middle" fill="#64748b" font-size="8.5">Balanced TAG</text>
  <text x="200" y="73" text-anchor="middle" fill="#64748b" font-size="8.5">Pro level</text>
  <rect x="165" y="88" width="70" height="20" rx="10" fill="#faf5ff" stroke="#ddd6fe" stroke-width="1"/>
  <text x="200" y="102" text-anchor="middle" fill="#7c3aed" font-size="9" font-weight="600">opus</text>

  <!-- Shark_Alice -->
  <rect x="270" y="10" width="120" height="120" rx="10" fill="#fff" stroke="#e2e8f0" stroke-width="1"/>
  <text x="330" y="42" text-anchor="middle" fill="#1e293b" font-size="12" font-weight="700">Shark_Alice</text>
  <text x="330" y="60" text-anchor="middle" fill="#64748b" font-size="8.5">Ice-cold TAG</text>
  <text x="330" y="73" text-anchor="middle" fill="#64748b" font-size="8.5">Shark level</text>
  <rect x="295" y="88" width="70" height="20" rx="10" fill="#eff6ff" stroke="#bfdbfe" stroke-width="1"/>
  <text x="330" y="102" text-anchor="middle" fill="#2563eb" font-size="9" font-weight="600">sonnet</text>

  <!-- ARIA_Bot -->
  <rect x="400" y="10" width="120" height="120" rx="10" fill="#fff" stroke="#e2e8f0" stroke-width="1"/>
  <text x="460" y="42" text-anchor="middle" fill="#1e293b" font-size="12" font-weight="700">ARIA_Bot</text>
  <text x="460" y="60" text-anchor="middle" fill="#64748b" font-size="8.5">Steady TAG</text>
  <text x="460" y="73" text-anchor="middle" fill="#64748b" font-size="8.5">Regular level</text>
  <rect x="425" y="88" width="70" height="20" rx="10" fill="#eff6ff" stroke="#bfdbfe" stroke-width="1"/>
  <text x="460" y="102" text-anchor="middle" fill="#2563eb" font-size="9" font-weight="600">sonnet</text>

  <!-- Maniac_Charlie -->
  <rect x="530" y="10" width="120" height="120" rx="10" fill="#fff" stroke="#e2e8f0" stroke-width="1"/>
  <text x="590" y="38" text-anchor="middle" fill="#1e293b" font-size="11" font-weight="700">Maniac_</text>
  <text x="590" y="52" text-anchor="middle" fill="#1e293b" font-size="11" font-weight="700">Charlie</text>
  <text x="590" y="68" text-anchor="middle" fill="#64748b" font-size="8.5">Reckless LAG</text>
  <text x="590" y="81" text-anchor="middle" fill="#64748b" font-size="8.5">Regular level</text>
  <rect x="555" y="93" width="70" height="20" rx="10" fill="#eff6ff" stroke="#bfdbfe" stroke-width="1"/>
  <text x="590" y="107" text-anchor="middle" fill="#2563eb" font-size="9" font-weight="600">sonnet</text>

  <!-- Fish_Bob -->
  <rect x="660" y="10" width="110" height="120" rx="10" fill="#fff" stroke="#e2e8f0" stroke-width="1"/>
  <text x="715" y="42" text-anchor="middle" fill="#1e293b" font-size="12" font-weight="700">Fish_Bob</text>
  <text x="715" y="60" text-anchor="middle" fill="#64748b" font-size="8.5">Happy LP</text>
  <text x="715" y="73" text-anchor="middle" fill="#64748b" font-size="8.5">Fish level</text>
  <rect x="680" y="88" width="70" height="20" rx="10" fill="#fef2f2" stroke="#fecaca" stroke-width="1"/>
  <text x="715" y="102" text-anchor="middle" fill="#dc2626" font-size="9" font-weight="600">haiku</text>
</svg>
